<svg width="286" height="99" viewBox="0 0 286 99" fill="none" xmlns="http://www.w3.org/2000/svg">
<path d="M92.752 60.112L84 36.224H89.328L93.824 49.712L94.976 54.016L96.128 49.712L100.384 36.224H105.68L97.056 60.112H92.752ZM114.195 60.256C112.638 60.256 111.315 60.0053 110.227 59.504C109.139 58.992 108.259 58.2933 107.587 57.408C106.926 56.5227 106.446 55.5093 106.147 54.368C105.849 53.216 105.705 52 105.715 50.72C105.747 48.8213 106.142 47.2213 106.899 45.92C107.667 44.6187 108.707 43.632 110.019 42.96C111.342 42.288 112.841 41.952 114.515 41.952C116.606 41.952 118.275 42.3893 119.523 43.264C120.771 44.1387 121.667 45.3013 122.211 46.752C122.755 48.192 123.011 49.76 122.979 51.456C122.958 53.3653 122.569 54.976 121.811 56.288C121.054 57.5893 120.019 58.576 118.707 59.248C117.395 59.92 115.891 60.256 114.195 60.256ZM114.323 56.848C115.593 56.8587 116.515 56.384 117.091 55.424C117.667 54.464 117.955 53.072 117.955 51.248C117.955 50.1707 117.838 49.1893 117.603 48.304C117.369 47.4187 116.99 46.7093 116.467 46.176C115.955 45.6427 115.273 45.3707 114.419 45.36C113.139 45.3493 112.211 45.8187 111.635 46.768C111.059 47.7067 110.771 49.0667 110.771 50.848C110.771 51.936 110.889 52.9387 111.123 53.856C111.358 54.7627 111.731 55.488 112.243 56.032C112.766 56.576 113.459 56.848 114.323 56.848ZM132.076 60.256C130.988 60.256 130.086 60.08 129.372 59.728C128.668 59.3653 128.14 58.7947 127.788 58.016C127.446 57.2373 127.276 56.208 127.276 54.928V45.52H125.116V42.912C125.905 42.688 126.534 42.4747 127.004 42.272C127.484 42.0693 127.83 41.7173 128.044 41.216C128.15 40.9707 128.262 40.6827 128.38 40.352C128.508 40.0213 128.641 39.664 128.78 39.28C128.918 38.896 129.062 38.5067 129.212 38.112H132.156V42.176H136.94V45.52H132.156V52.864C132.156 53.9947 132.214 54.8213 132.332 55.344C132.449 55.856 132.652 56.1867 132.94 56.336C133.228 56.4747 133.644 56.544 134.188 56.544C134.465 56.544 134.785 56.512 135.148 56.448C135.51 56.3733 135.857 56.2827 136.188 56.176C136.518 56.0693 136.774 55.9573 136.956 55.84L137.596 58.576C137.308 58.832 136.876 59.0933 136.3 59.36C135.724 59.616 135.068 59.8293 134.332 60C133.595 60.1707 132.844 60.256 132.076 60.256ZM148.342 60.256C145.601 60.256 143.5 59.44 142.038 57.808C140.577 56.176 139.846 53.92 139.846 51.04C139.846 49.312 140.177 47.7653 140.838 46.4C141.51 45.0347 142.481 43.9573 143.75 43.168C145.02 42.368 146.572 41.9627 148.406 41.952C149.334 41.9413 150.22 42.0587 151.062 42.304C151.905 42.5493 152.657 42.9493 153.318 43.504C153.98 44.048 154.508 44.7733 154.902 45.68C155.308 46.576 155.516 47.6747 155.526 48.976C155.526 49.6267 155.516 50.2293 155.494 50.784C155.473 51.3387 155.425 51.8133 155.35 52.208H142.47L142.79 49.568H150.982C151.036 48.704 150.988 47.9467 150.838 47.296C150.7 46.6347 150.422 46.1227 150.006 45.76C149.59 45.3867 149.004 45.2 148.246 45.2C147.51 45.2 146.865 45.4027 146.31 45.808C145.766 46.2133 145.345 46.912 145.046 47.904C144.758 48.8853 144.636 50.24 144.678 51.968C144.721 53.1307 144.945 54.064 145.35 54.768C145.766 55.4613 146.326 55.9627 147.03 56.272C147.745 56.5707 148.572 56.72 149.51 56.72C150.022 56.72 150.582 56.6773 151.19 56.592C151.798 56.5067 152.374 56.3947 152.918 56.256C153.462 56.1067 153.878 55.9573 154.166 55.808L154.982 58.464C154.588 58.784 154.044 59.0827 153.35 59.36C152.668 59.6267 151.889 59.84 151.014 60C150.15 60.1707 149.26 60.256 148.342 60.256Z" fill="black"/>
<path d="M160.746 38.624L158.346 38.208V36.224H163.178C163.626 36.224 164.319 36.2027 165.258 36.16C166.495 36.0747 167.615 36.032 168.618 36.032C170.836 36.032 172.586 36.3093 173.866 36.864C175.167 37.3973 176.084 38.176 176.618 39.2C177.172 40.2027 177.45 41.4827 177.45 43.04C177.45 45.728 176.607 47.8187 174.922 49.312C173.258 50.8053 170.943 51.552 167.978 51.552C166.804 51.552 165.962 51.52 165.45 51.456V57.76L169.738 58.08V60H158.218V58.08L160.746 57.76V38.624ZM165.418 49.408C165.908 49.5147 166.74 49.568 167.914 49.568C169.343 49.568 170.484 49.0773 171.338 48.096C172.212 47.0933 172.65 45.44 172.65 43.136C172.65 41.344 172.255 40.0427 171.466 39.232C170.698 38.4 169.514 37.984 167.914 37.984C167.316 37.984 166.698 38.0267 166.058 38.112C165.759 38.1547 165.546 38.176 165.418 38.176V49.408ZM179.182 55.008C179.182 53.0667 180.152 51.6053 182.094 50.624C184.056 49.6427 186.584 49.1413 189.678 49.12V48.384C189.678 47.5093 189.582 46.8267 189.39 46.336C189.219 45.8453 188.888 45.4827 188.398 45.248C187.928 44.992 187.235 44.864 186.318 44.864C185.272 44.864 184.334 45.0027 183.502 45.28C182.67 45.536 181.806 45.8773 180.91 46.304L179.918 44.256C180.238 43.9787 180.771 43.648 181.518 43.264C182.286 42.88 183.192 42.5493 184.238 42.272C185.283 41.9733 186.36 41.824 187.47 41.824C189.112 41.824 190.392 42.0373 191.31 42.464C192.248 42.8907 192.92 43.5733 193.326 44.512C193.731 45.4507 193.934 46.7093 193.934 48.288V58.08H195.662V59.872C195.235 59.9787 194.627 60.0853 193.838 60.192C193.048 60.2987 192.355 60.352 191.758 60.352C191.032 60.352 190.542 60.2453 190.286 60.032C190.051 59.8187 189.934 59.3813 189.934 58.72V57.856C189.358 58.496 188.611 59.072 187.694 59.584C186.776 60.096 185.742 60.352 184.59 60.352C183.608 60.352 182.702 60.1493 181.87 59.744C181.059 59.3173 180.408 58.7093 179.918 57.92C179.427 57.1093 179.182 56.1387 179.182 55.008ZM186.638 57.696C187.086 57.696 187.598 57.568 188.174 57.312C188.75 57.0347 189.251 56.704 189.678 56.32V51.072C187.758 51.072 186.318 51.4027 185.358 52.064C184.419 52.704 183.95 53.536 183.95 54.56C183.95 55.584 184.184 56.3627 184.654 56.896C185.144 57.4293 185.806 57.696 186.638 57.696ZM203.515 51.264L198.235 44.448L196.571 44.064V42.208H205.819V44.064L203.739 44.448L206.267 48L207.099 49.344L207.931 48L210.523 44.448L208.347 44.064V42.208H215.291V44.064L213.467 44.448L208.411 50.656L213.947 57.824L215.707 58.112V60H206.459V58.112L208.347 57.792L205.883 54.048L204.923 52.64L204.155 54.016L201.531 57.792L203.995 58.112V60H196.315V58.112L198.363 57.792L203.515 51.264ZM217.034 51.136C217.034 49.1307 217.428 47.424 218.218 46.016C219.028 44.608 220.106 43.552 221.45 42.848C222.794 42.1227 224.255 41.76 225.834 41.76C228.522 41.76 230.591 42.592 232.042 44.256C233.514 45.8987 234.25 48.1387 234.25 50.976C234.25 53.0027 233.844 54.7307 233.034 56.16C232.244 57.568 231.178 58.624 229.834 59.328C228.511 60.0107 227.05 60.352 225.45 60.352C222.783 60.352 220.714 59.5307 219.242 57.888C217.77 56.224 217.034 53.9733 217.034 51.136ZM225.706 58.272C228.116 58.272 229.322 55.9467 229.322 51.296C229.322 48.864 229.034 47.0187 228.458 45.76C227.882 44.48 226.943 43.84 225.642 43.84C223.167 43.84 221.93 46.1653 221.93 50.816C221.93 53.248 222.228 55.104 222.826 56.384C223.444 57.6427 224.404 58.272 225.706 58.272ZM240.711 57.376C240.881 57.632 241.265 57.8773 241.863 58.112C242.481 58.3253 243.1 58.432 243.719 58.432C244.721 58.432 245.468 58.2293 245.959 57.824C246.471 57.3973 246.727 56.8427 246.727 56.16C246.727 55.456 246.417 54.8907 245.799 54.464C245.18 54.016 244.135 53.472 242.663 52.832L241.767 52.448C240.295 51.8293 239.196 51.0827 238.471 50.208C237.745 49.3333 237.383 48.2027 237.383 46.816C237.383 45.856 237.671 45.0027 238.247 44.256C238.823 43.488 239.633 42.8907 240.679 42.464C241.724 42.0373 242.929 41.824 244.295 41.824C245.297 41.824 246.151 41.888 246.855 42.016C247.58 42.144 248.337 42.3147 249.127 42.528C249.553 42.6773 249.873 42.7627 250.087 42.784V46.976H247.559L246.823 44.544C246.695 44.3307 246.407 44.1387 245.959 43.968C245.511 43.7973 244.999 43.712 244.423 43.712C243.548 43.712 242.844 43.904 242.311 44.288C241.799 44.6507 241.543 45.1627 241.543 45.824C241.543 46.4213 241.724 46.9227 242.087 47.328C242.449 47.712 242.844 48.0107 243.271 48.224C243.697 48.4373 244.487 48.7893 245.639 49.28C246.791 49.7707 247.74 50.24 248.487 50.688C249.255 51.136 249.884 51.7227 250.375 52.448C250.887 53.152 251.143 54.016 251.143 55.04C251.143 56.6187 250.524 57.8987 249.287 58.88C248.049 59.8613 246.268 60.352 243.943 60.352C242.855 60.352 241.873 60.256 240.999 60.064C240.145 59.872 239.153 59.616 238.023 59.296L237.319 59.072V54.848H239.975L240.711 57.376Z" fill="#E19533"/>
<path fill-rule="evenodd" clip-rule="evenodd" d="M94.8906 25.1126C95.601 25.8253 96 26.7917 96 27.7994C96 28.807 95.601 29.7734 94.8906 30.4861L64.5778 60.8874C63.8673 61.5998 62.9037 62 61.8989 62C60.8942 62 59.9306 61.5998 59.22 60.8874L49.0636 50.6867C48.3734 49.97 47.9915 49.0101 48.0001 48.0137C48.0088 47.0173 48.4073 46.0642 49.1098 45.3596C49.8123 44.655 50.7627 44.2553 51.7562 44.2467C52.7497 44.238 53.7068 44.6211 54.4214 45.3133L61.8989 52.8272L89.5328 25.1126C90.2434 24.4002 91.207 24 92.2117 24C93.2164 24 94.18 24.4002 94.8906 25.1126Z" fill="#E19533"/>
<path fill-rule="evenodd" clip-rule="evenodd" d="M77.4094 31.6063C76.0197 27.7539 72.3315 25 68 25H39C33.4772 25 29 29.4772 29 35V64C29 69.5228 33.4772 74 39 74H68C73.5228 74 78 69.5228 78 64V53.0911L72 59.1086V64C72 66.2091 70.2091 68 68 68H39C36.7909 68 35 66.2091 35 64V35C35 32.7909 36.7909 31 39 31H68C70.2091 31 72 32.7909 72 35V37.0315L77.4094 31.6063Z" fill="#FFC339"/>
</svg>
