<svg width="223" height="49" viewBox="0 0 223 49" fill="none" xmlns="http://www.w3.org/2000/svg">
<g clip-path="url(#clip0_5_14)">
<path d="M63.752 36.112L55 12.224H60.328L64.824 25.712L65.976 30.016L67.128 25.712L71.384 12.224H76.68L68.056 36.112H63.752ZM85.1953 36.256C83.6379 36.256 82.3153 36.0053 81.2273 35.504C80.1393 34.992 79.2593 34.2933 78.5873 33.408C77.9259 32.5227 77.4459 31.5093 77.1473 30.368C76.8486 29.216 76.7046 28 76.7153 26.72C76.7473 24.8213 77.1419 23.2213 77.8993 21.92C78.6673 20.6187 79.7073 19.632 81.0193 18.96C82.3419 18.288 83.8406 17.952 85.5153 17.952C87.6059 17.952 89.2753 18.3893 90.5233 19.264C91.7713 20.1387 92.6673 21.3013 93.2113 22.752C93.7553 24.192 94.0113 25.76 93.9792 27.456C93.9579 29.3653 93.5686 30.976 92.8113 32.288C92.0539 33.5893 91.0193 34.576 89.7073 35.248C88.3953 35.92 86.8913 36.256 85.1953 36.256ZM85.3233 32.848C86.5926 32.8587 87.5153 32.384 88.0913 31.424C88.6673 30.464 88.9553 29.072 88.9553 27.248C88.9553 26.1707 88.8379 25.1893 88.6033 24.304C88.3686 23.4187 87.9899 22.7093 87.4673 22.176C86.9553 21.6427 86.2726 21.3707 85.4193 21.36C84.1393 21.3493 83.2113 21.8187 82.6353 22.768C82.0593 23.7067 81.7713 25.0667 81.7713 26.848C81.7713 27.936 81.8886 28.9387 82.1233 29.856C82.3579 30.7627 82.7313 31.488 83.2433 32.032C83.7659 32.576 84.4593 32.848 85.3233 32.848ZM103.076 36.256C101.988 36.256 101.086 36.08 100.372 35.728C99.6675 35.3653 99.1395 34.7947 98.7875 34.016C98.4462 33.2373 98.2755 32.208 98.2755 30.928V21.52H96.1155V18.912C96.9048 18.688 97.5342 18.4747 98.0035 18.272C98.4835 18.0693 98.8302 17.7173 99.0435 17.216C99.1502 16.9707 99.2622 16.6827 99.3795 16.352C99.5075 16.0213 99.6408 15.664 99.7795 15.28C99.9182 14.896 100.062 14.5067 100.212 14.112H103.156V18.176H107.94V21.52H103.156V28.864C103.156 29.9947 103.214 30.8213 103.332 31.344C103.449 31.856 103.652 32.1867 103.94 32.336C104.228 32.4747 104.644 32.544 105.188 32.544C105.465 32.544 105.785 32.512 106.148 32.448C106.51 32.3733 106.857 32.2827 107.188 32.176C107.518 32.0693 107.774 31.9573 107.956 31.84L108.596 34.576C108.308 34.832 107.876 35.0933 107.3 35.36C106.724 35.616 106.068 35.8293 105.332 36C104.595 36.1707 103.844 36.256 103.076 36.256ZM119.342 36.256C116.601 36.256 114.5 35.44 113.038 33.808C111.577 32.176 110.846 29.92 110.846 27.04C110.846 25.312 111.177 23.7653 111.838 22.4C112.51 21.0347 113.481 19.9573 114.75 19.168C116.02 18.368 117.572 17.9627 119.406 17.952C120.334 17.9413 121.22 18.0587 122.062 18.304C122.905 18.5493 123.657 18.9493 124.318 19.504C124.98 20.048 125.508 20.7733 125.902 21.68C126.308 22.576 126.516 23.6747 126.526 24.976C126.526 25.6267 126.516 26.2293 126.494 26.784C126.473 27.3387 126.425 27.8133 126.35 28.208H113.47L113.79 25.568H121.982C122.036 24.704 121.988 23.9467 121.838 23.296C121.7 22.6347 121.422 22.1227 121.006 21.76C120.59 21.3867 120.004 21.2 119.246 21.2C118.51 21.2 117.865 21.4027 117.31 21.808C116.766 22.2133 116.345 22.912 116.046 23.904C115.758 24.8853 115.636 26.24 115.678 27.968C115.721 29.1307 115.945 30.064 116.35 30.768C116.766 31.4613 117.326 31.9627 118.03 32.272C118.745 32.5707 119.572 32.72 120.51 32.72C121.022 32.72 121.582 32.6773 122.19 32.592C122.798 32.5067 123.374 32.3947 123.918 32.256C124.462 32.1067 124.878 31.9573 125.166 31.808L125.982 34.464C125.588 34.784 125.044 35.0827 124.35 35.36C123.668 35.6267 122.889 35.84 122.014 36C121.15 36.1707 120.26 36.256 119.342 36.256Z" fill="white"/>
<path d="M131.746 14.624L129.346 14.208V12.224H134.178C134.626 12.224 135.319 12.2027 136.258 12.16C137.495 12.0747 138.615 12.032 139.618 12.032C141.836 12.032 143.586 12.3093 144.866 12.864C146.167 13.3973 147.084 14.176 147.618 15.2C148.172 16.2027 148.45 17.4827 148.45 19.04C148.45 21.728 147.607 23.8187 145.922 25.312C144.258 26.8053 141.943 27.552 138.978 27.552C137.804 27.552 136.962 27.52 136.45 27.456V33.76L140.738 34.08V36H129.218V34.08L131.746 33.76V14.624ZM136.418 25.408C136.908 25.5147 137.74 25.568 138.914 25.568C140.343 25.568 141.484 25.0773 142.338 24.096C143.212 23.0933 143.65 21.44 143.65 19.136C143.65 17.344 143.255 16.0427 142.466 15.232C141.698 14.4 140.514 13.984 138.914 13.984C138.316 13.984 137.698 14.0267 137.058 14.112C136.759 14.1547 136.546 14.176 136.418 14.176V25.408ZM150.182 31.008C150.182 29.0667 151.152 27.6053 153.094 26.624C155.056 25.6427 157.584 25.1413 160.678 25.12V24.384C160.678 23.5093 160.582 22.8267 160.39 22.336C160.219 21.8453 159.888 21.4827 159.398 21.248C158.928 20.992 158.235 20.864 157.318 20.864C156.272 20.864 155.334 21.0027 154.502 21.28C153.67 21.536 152.806 21.8773 151.91 22.304L150.918 20.256C151.238 19.9787 151.771 19.648 152.518 19.264C153.286 18.88 154.192 18.5493 155.238 18.272C156.283 17.9733 157.36 17.824 158.47 17.824C160.112 17.824 161.392 18.0373 162.31 18.464C163.248 18.8907 163.92 19.5733 164.326 20.512C164.731 21.4507 164.934 22.7093 164.934 24.288V34.08H166.662V35.872C166.235 35.9787 165.627 36.0853 164.838 36.192C164.048 36.2987 163.355 36.352 162.758 36.352C162.032 36.352 161.542 36.2453 161.286 36.032C161.051 35.8187 160.934 35.3813 160.934 34.72V33.856C160.358 34.496 159.611 35.072 158.694 35.584C157.776 36.096 156.742 36.352 155.59 36.352C154.608 36.352 153.702 36.1493 152.87 35.744C152.059 35.3173 151.408 34.7093 150.918 33.92C150.427 33.1093 150.182 32.1387 150.182 31.008ZM157.638 33.696C158.086 33.696 158.598 33.568 159.174 33.312C159.75 33.0347 160.251 32.704 160.678 32.32V27.072C158.758 27.072 157.318 27.4027 156.358 28.064C155.419 28.704 154.95 29.536 154.95 30.56C154.95 31.584 155.184 32.3627 155.654 32.896C156.144 33.4293 156.806 33.696 157.638 33.696ZM174.515 27.264L169.235 20.448L167.571 20.064V18.208H176.819V20.064L174.739 20.448L177.267 24L178.099 25.344L178.931 24L181.523 20.448L179.347 20.064V18.208H186.291V20.064L184.467 20.448L179.411 26.656L184.947 33.824L186.707 34.112V36H177.459V34.112L179.347 33.792L176.883 30.048L175.923 28.64L175.155 30.016L172.531 33.792L174.995 34.112V36H167.315V34.112L169.363 33.792L174.515 27.264ZM188.034 27.136C188.034 25.1307 188.428 23.424 189.218 22.016C190.028 20.608 191.106 19.552 192.45 18.848C193.794 18.1227 195.255 17.76 196.834 17.76C199.522 17.76 201.591 18.592 203.042 20.256C204.514 21.8987 205.25 24.1387 205.25 26.976C205.25 29.0027 204.844 30.7307 204.034 32.16C203.244 33.568 202.178 34.624 200.834 35.328C199.511 36.0107 198.05 36.352 196.45 36.352C193.783 36.352 191.714 35.5307 190.242 33.888C188.77 32.224 188.034 29.9733 188.034 27.136ZM196.706 34.272C199.116 34.272 200.322 31.9467 200.322 27.296C200.322 24.864 200.034 23.0187 199.458 21.76C198.882 20.48 197.943 19.84 196.642 19.84C194.167 19.84 192.93 22.1653 192.93 26.816C192.93 29.248 193.228 31.104 193.826 32.384C194.444 33.6427 195.404 34.272 196.706 34.272ZM211.711 33.376C211.881 33.632 212.265 33.8773 212.863 34.112C213.481 34.3253 214.1 34.432 214.719 34.432C215.721 34.432 216.468 34.2293 216.959 33.824C217.471 33.3973 217.727 32.8427 217.727 32.16C217.727 31.456 217.417 30.8907 216.799 30.464C216.18 30.016 215.135 29.472 213.663 28.832L212.767 28.448C211.295 27.8293 210.196 27.0827 209.471 26.208C208.745 25.3333 208.383 24.2027 208.383 22.816C208.383 21.856 208.671 21.0027 209.247 20.256C209.823 19.488 210.633 18.8907 211.679 18.464C212.724 18.0373 213.929 17.824 215.295 17.824C216.297 17.824 217.151 17.888 217.855 18.016C218.58 18.144 219.337 18.3147 220.127 18.528C220.553 18.6773 220.873 18.7627 221.087 18.784V22.976H218.559L217.823 20.544C217.695 20.3307 217.407 20.1387 216.959 19.968C216.511 19.7973 215.999 19.712 215.423 19.712C214.548 19.712 213.844 19.904 213.311 20.288C212.799 20.6507 212.543 21.1627 212.543 21.824C212.543 22.4213 212.724 22.9227 213.087 23.328C213.449 23.712 213.844 24.0107 214.271 24.224C214.697 24.4373 215.487 24.7893 216.639 25.28C217.791 25.7707 218.74 26.24 219.487 26.688C220.255 27.136 220.884 27.7227 221.375 28.448C221.887 29.152 222.143 30.016 222.143 31.04C222.143 32.6187 221.524 33.8987 220.287 34.88C219.049 35.8613 217.268 36.352 214.943 36.352C213.855 36.352 212.873 36.256 211.999 36.064C211.145 35.872 210.153 35.616 209.023 35.296L208.319 35.072V30.848H210.975L211.711 33.376Z" fill="#E19533"/>
<path fill-rule="evenodd" clip-rule="evenodd" d="M65.8906 1.11264C66.601 1.82527 67 2.79168 67 3.79935C67 4.80702 66.601 5.77343 65.8906 6.48606L35.5778 36.8874C34.8673 37.5998 33.9037 38 32.8989 38C31.8942 38 30.9306 37.5998 30.22 36.8874L20.0636 26.6867C19.3734 25.97 18.9915 25.0101 19.0001 24.0137C19.0088 23.0173 19.4073 22.0642 20.1098 21.3596C20.8123 20.655 21.7627 20.2553 22.7562 20.2467C23.7497 20.238 24.7068 20.6211 25.4214 21.3133L32.8989 28.8272L60.5328 1.11264C61.2434 0.400216 62.207 0 63.2117 0C64.2164 0 65.18 0.400216 65.8906 1.11264Z" fill="#E19533"/>
<path fill-rule="evenodd" clip-rule="evenodd" d="M48.4094 7.60631C47.0197 3.7539 43.3315 1 39 1H10C4.47715 1 0 5.47715 0 11V40C0 45.5228 4.47715 50 10 50H39C44.5228 50 49 45.5228 49 40V29.0911L43 35.1086V40C43 42.2091 41.2091 44 39 44H10C7.79086 44 6 42.2091 6 40V11C6 8.79086 7.79086 7 10 7H39C41.2091 7 43 8.79086 43 11V13.0315L48.4094 7.60631Z" fill="#FFC339"/>
</g>
<defs>
<clipPath id="clip0_5_14">
<rect width="223" height="49" fill="white"/>
</clipPath>
</defs>
</svg>
