<svg width="92" height="92" viewBox="0 0 92 92" fill="none" xmlns="http://www.w3.org/2000/svg">
<path fill-rule="evenodd" clip-rule="evenodd" d="M86.8906 22.1126C87.601 22.8253 88 23.7917 88 24.7994C88 25.807 87.601 26.7734 86.8906 27.4861L56.5778 57.8874C55.8673 58.5998 54.9037 59 53.8989 59C52.8942 59 51.9306 58.5998 51.22 57.8874L41.0636 47.6867C40.3734 46.97 39.9915 46.0101 40.0001 45.0137C40.0088 44.0173 40.4073 43.0642 41.1098 42.3596C41.8123 41.655 42.7627 41.2553 43.7562 41.2467C44.7497 41.238 45.7068 41.6211 46.4214 42.3133L53.8989 49.8272L81.5328 22.1126C82.2434 21.4002 83.207 21 84.2117 21C85.2164 21 86.18 21.4002 86.8906 22.1126Z" fill="#E19533"/>
<path fill-rule="evenodd" clip-rule="evenodd" d="M69.4094 28.6063C68.0197 24.7539 64.3315 22 60 22H31C25.4772 22 21 26.4772 21 32V61C21 66.5228 25.4772 71 31 71H60C65.5228 71 70 66.5228 70 61V50.0911L64 56.1086V61C64 63.2091 62.2091 65 60 65H31C28.7909 65 27 63.2091 27 61V32C27 29.7909 28.7909 28 31 28H60C62.2091 28 64 29.7909 64 32V34.0315L69.4094 28.6063Z" fill="#FFC339"/>
</svg>
